<svg width="34" height="26" viewBox="0 0 34 26" fill="none" xmlns="http://www.w3.org/2000/svg">
<path d="M32.5833 14.6693H1.41667C0.634664 14.6693 0 13.9226 0 13.0026C0 12.0826 0.634664 11.3359 1.41667 11.3359H32.5833C33.3653 11.3359 34 12.0826 34 13.0026C34 13.9226 33.3653 14.6693 32.5833 14.6693Z" fill="black"/>
<path d="M32.5833 3.33333H1.41667C0.634664 3.33333 0 2.58667 0 1.66667C0 0.746664 0.634664 0 1.41667 0H32.5833C33.3653 0 34 0.746664 34 1.66667C34 2.58667 33.3653 3.33333 32.5833 3.33333Z" fill="black"/>
<path d="M32.5833 26.0013H1.41667C0.634664 26.0013 0 25.2546 0 24.3346C0 23.4146 0.634664 22.668 1.41667 22.668H32.5833C33.3653 22.668 34 23.4146 34 24.3346C34 25.2546 33.3653 26.0013 32.5833 26.0013Z" fill="black"/>
</svg>
