<?xml version="1.0" standalone="no"?>
<!DOCTYPE svg PUBLIC "-//W3C//DTD SVG 20010904//EN"
 "http://www.w3.org/TR/2001/REC-SVG-20010904/DTD/svg10.dtd">
<svg version="1.0" xmlns="http://www.w3.org/2000/svg"
 width="300.000000pt" height="300.000000pt" viewBox="0 0 300.000000 300.000000"
 preserveAspectRatio="xMidYMid meet">
<metadata>
Created by potrace 1.14, written by Peter Selinger 2001-2017
</metadata>
<g transform="translate(0.000000,300.000000) scale(0.100000,-0.100000)"
fill="#000000" stroke="none">
<path d="M606 2755 c4 -8 10 -12 15 -9 5 3 9 -1 9 -9 0 -7 11 -24 25 -37 14
-13 23 -25 21 -27 -2 -3 9 -17 25 -32 16 -16 29 -33 29 -40 0 -6 5 -11 11 -11
5 0 8 -4 5 -9 -4 -5 -2 -11 2 -13 11 -4 82 -115 82 -127 0 -5 4 -11 9 -13 5
-1 11 -10 13 -18 2 -8 5 -17 8 -20 11 -11 60 -110 54 -110 -3 0 2 -7 10 -16 9
-8 14 -20 11 -25 -4 -5 -1 -9 5 -9 6 0 8 -4 5 -10 -3 -5 -1 -10 5 -10 6 0 9
-4 5 -9 -3 -5 1 -16 9 -24 8 -8 12 -17 9 -21 -3 -3 -2 -11 4 -18 5 -7 16 -33
23 -58 7 -25 16 -49 19 -55 3 -5 6 -16 7 -23 2 -8 6 -21 10 -30 11 -26 15 -45
16 -74 1 -16 5 -28 8 -28 7 0 25 -77 21 -92 0 -5 135 -8 302 -8 337 0 389 7
486 62 108 62 190 157 232 270 26 70 34 214 14 287 -48 183 -203 333 -383 370
-35 7 -238 11 -592 11 -474 0 -539 -2 -534 -15z"/>
<path d="M1129 1435 c-1 -3 -2 -8 -3 -12 -1 -5 -5 -14 -9 -20 -5 -7 -4 -13 0
-13 11 0 11 -86 1 -96 -4 -4 -3 -15 2 -25 7 -12 7 -20 0 -24 -7 -4 -7 -13 0
-26 6 -10 7 -19 3 -19 -5 0 -8 -17 -8 -37 1 -21 -1 -42 -4 -47 -4 -10 -11 -66
-14 -118 -1 -16 -4 -28 -7 -28 -4 0 -7 -10 -7 -22 -1 -22 -10 -63 -13 -63 -1
0 -3 -9 -5 -20 -5 -27 -13 -60 -15 -60 -2 0 -10 -43 -12 -67 -1 -10 -6 -18
-10 -18 -4 0 -8 -11 -8 -25 0 -14 -5 -25 -11 -25 -5 0 -8 -4 -5 -9 3 -4 -3
-24 -13 -44 -10 -20 -14 -34 -9 -31 5 3 4 -3 -4 -15 -7 -12 -16 -21 -21 -21
-4 0 -5 -5 -2 -10 3 -6 -7 -36 -23 -68 -16 -31 -27 -63 -24 -71 3 -8 0 -11 -6
-7 -5 3 -15 -8 -21 -24 l-10 -30 744 0 744 0 87 25 c245 72 410 308 391 563
-18 237 -184 435 -417 496 -45 12 -170 15 -672 15 -340 1 -619 -1 -619 -4z"/>
</g>
</svg>
